<?xml version="1.0" encoding="UTF-8" standalone="no"?>
<svg width="53px" height="39px" viewBox="0 0 53 39" version="1.1" xmlns="http://www.w3.org/2000/svg" xmlns:xlink="http://www.w3.org/1999/xlink">
    <!-- Generator: Sketch Beta 48 (47142) - http://www.bohemiancoding.com/sketch -->
    <title>Upload</title>
    <desc>Created with Sketch Beta.</desc>
    <defs>
        <path d="M34.9127633,24.9216252 C34.7691094,25.2048137 34.4717821,25.3603262 34.1175968,25.3603262 L30.2350794,25.3603262 L30.2350794,34.8530184 C30.2350794,35.4670266 29.7658503,36 29.1667292,36 L25.8322694,36 C25.2331483,36 24.8027902,35.4670266 24.8027902,34.8530184 L24.8027902,25.3603262 L20.8822468,25.3603262 C20.5281822,25.3603262 20.2309757,25.2050612 20.0872011,24.9219963 C19.9435472,24.6389315 19.9789174,24.299328 20.1819643,24.0021594 L26.7287178,14.4291748 C26.9159507,14.1553887 27.1971019,14 27.5001029,14 C27.8033453,14 28.0844965,14.1579868 28.2716087,14.4317728 L34.8177586,24.0011697 C35.0210469,24.298462 35.0565379,24.6385604 34.9127633,24.9216252 Z" id="path-1"></path>
    </defs>
    <g id="Onboard---Add-Properties-Copy" stroke="none" stroke-width="1" fill="none" fill-rule="evenodd" transform="translate(-550.000000, -554.000000)">
        <g id="Upload" transform="translate(550.000000, 554.000000)">
            <path d="M45.6893125,13.1392 C44.155625,9.2016 40.220375,6.4 35.609375,6.4 C34.5477188,6.4 33.5225,6.5488 32.5519375,6.8256 C29.925125,2.728 25.2296563,0 19.875,0 C11.75275,0 5.1443125,6.2784 4.9720625,14.0848 C1.99909375,15.7472 0,18.8528 0,22.4 C0,27.6992 4.45034375,32 9.9375,32 L43.0625,32 C48.548,32 53,27.6912 53,22.4 C53,17.976 49.9028125,14.2512 45.6893125,13.1392 Z M43.0674688,28.8 L9.93253125,28.8 C6.2838125,28.8 3.3125,25.9344 3.3125,22.4 C3.3125,19.3728 5.49378125,16.8288 8.42534375,16.1664 C8.32928125,15.592 8.28125,15.0016 8.28125,14.4 C8.28125,8.2144 13.4719375,3.2 19.875,3.2 C25.1120625,3.2 29.5375625,6.5552 30.9751875,11.16 C32.2488438,10.1824 33.8554063,9.6 35.609375,9.6 C39.44525,9.6 42.6070313,12.4 43.0177812,16 L43.0674688,16 C46.7161875,16 49.6875,18.8656 49.6875,22.4 C49.6875,25.928 46.7244687,28.8 43.0674688,28.8 Z" id="Shape" fill="#79BFE8" fill-rule="nonzero"></path>
            <g id="Path">
                <use fill="#79BFE8" fill-rule="evenodd" xlink:href="#path-1"></use>
                <path stroke="#FFFFFF" stroke-width="3" d="M36.2503149,25.6005623 C35.8382611,26.412522 35.0148217,26.8603262 34.1175968,26.8603262 L31.7350794,26.8603262 L31.7350794,34.8530184 C31.7350794,36.2774042 30.6160983,37.5 29.1667292,37.5 L25.8322694,37.5 C24.3706281,37.5 23.3027902,36.271151 23.3027902,34.8530184 L23.3027902,26.8603262 L20.8822468,26.8603262 C19.9852788,26.8603262 19.1620941,26.4129587 18.7495942,25.6008246 C18.347709,24.8089243 18.4427951,23.8886747 18.9438116,23.155414 L25.4905581,13.5824396 C25.9504265,12.9099854 26.688626,12.5 27.5001029,12.5 C28.31305,12.5 29.0506494,12.913246 29.5096499,13.5848643 L36.0559566,23.1544904 C36.5571086,23.8873837 36.6525147,24.8083859 36.2503149,25.6005623 Z"></path>
            </g>
        </g>
    </g>
</svg>