
<svg width="1169px" height="890px" viewBox="0 0 1169 890" version="1.1" xmlns="http://www.w3.org/2000/svg" xmlns:xlink="http://www.w3.org/1999/xlink">
    <!-- Generator: Sketch 47.1 (45422) - http://www.bohemiancoding.com/sketch -->
    <desc>Created with Sketch.</desc>
    <defs>
        <rect id="path-1" x="0" y="0" width="1169" height="890"></rect>
    </defs>
    <g id="Page-1" stroke="none" stroke-width="1" fill="none" fill-rule="evenodd">
        <mask id="mask-2" fill="white">
            <use xlink:href="#path-1"></use>
        </mask>
        <use id="Shape" fill="#F5F6FA" xlink:href="#path-1"></use>
        <g id="clouds" mask="url(#mask-2)" fill-rule="nonzero">
            <g transform="translate(689.000000, 139.000000)" id="Shape">
                <path d="M179.62143,152 L223.670714,152 C240.125576,121.74541 268.247383,98.8051932 302,89.2692734 C295.209635,72.7455774 278.994284,61.1139018 260.063709,61.1139018 C255.331065,61.1139018 250.772297,61.8444158 246.487585,63.1888847 C246.510615,62.4987624 246.540554,61.8097942 246.540554,61.1139018 C246.540554,27.364847 219.234005,0 185.557386,0 C156.513232,0 132.232811,20.3482196 126.091889,47.5918913 C122.443954,46.3732139 118.551901,45.7061727 114.497488,45.7061727 C102.022192,45.7061727 91.0092957,51.9657429 84.4054727,61.5201276 C80.7206892,60.5680358 76.8516665,60.0521752 72.8686458,60.0521752 C47.5357591,60.0521752 27,80.6346671 27,106.024934 C27,131.410584 47.5369106,151.997692 72.8686458,151.997692 L146.203898,151.997692" fill="#9FDEF7"></path>
                <path d="M430.444397,123.945128 C406.858087,98.7494542 373.279746,83 336.019645,83 C274.474909,83 223.01324,125.978689 209.996289,183.515698 C202.270931,180.942386 194.018949,179.526834 185.430481,179.526834 C158.987494,179.526834 135.653549,192.75016 121.658252,212.926955 C113.846468,210.911807 105.654408,209.828852 97.2099837,209.828852 C43.5219738,209.828852 0,253.294354 0,306.9127 C0,360.528744 43.5219738,404 97.2099837,404 L204.391256,404 C204.617117,370.999226 231.458817,344.318948 264.550867,344.318948 C270.826567,344.318948 276.87756,345.279912 282.565562,347.060285 C282.539058,346.15111 282.497573,345.239632 282.497573,344.318948 C282.497573,299.680726 318.729778,263.494384 363.424844,263.494384 C401.962902,263.494384 434.190689,290.409436 442.341264,326.435808 C447.177679,324.82346 452.341361,323.938453 457.720534,323.938453 C474.277506,323.938453 488.892767,332.217705 497.65524,344.855247 C502.546968,343.591608 507.67608,342.912603 512.963064,342.912603 C535.123917,342.912603 554.513366,354.742244 565.15878,372.417079 C580.595668,355.392477 590,332.811547 590,308.038236 C590,255.034447 546.980451,212.075322 493.912406,212.075322 C483.891566,212.075322 474.230259,213.609412 465.14628,216.452024 C465.193527,214.998494 465.256906,213.541511 465.256906,212.075322 C465.256906,190.402416 459.908847,169.978188 450.454964,152.043259" fill="#BEEAFC"></path>
                <path d="M103.146356,210.180525 C101.206639,210.063241 99.253083,210 97.2833822,210 C43.5548351,209.99885 0,253.42719 0,306.998275 C0,360.567061 43.5548351,404 97.2833822,404 L204.545582,404 C204.615929,393.653732 207.313312,383.930678 212,375.4575 C158.964538,334.761183 119.889965,276.888542 103.146356,210.180525 Z" fill="#AEE4FF"></path>
                <path d="M94.1522383,137.044228 C94.1522383,105.669557 99.0085915,75.4254841 108,47 C98.3034508,48.7784561 89.943322,54.3465944 84.5341664,62.1025434 C80.8411222,61.1565561 76.9634258,60.644003 72.9714758,60.644003 C47.5817969,60.644003 27,81.0945277 27,106.322002 C27,131.544889 47.582951,152 72.9714758,152 L94.5273131,152 C94.282649,147.044173 94.1522383,142.05968 94.1522383,137.044228 Z" fill="#83D4ED"></path>
                <path d="M512.197654,340.416728 C506.917199,340.416728 501.792119,341.093418 496.908734,342.359335 C488.157081,329.72088 473.559869,321.442934 457.023343,321.442934 C451.650814,321.442934 446.493508,322.327925 441.663065,323.940243 C433.521404,287.913395 401.334567,261 362.844101,261 C318.204229,261 282.016768,297.185662 282.016768,341.823046 C282.016768,342.743713 282.05705,343.655174 282.084673,344.564332 C276.403695,342.783993 270.360175,341.823046 264.092224,341.823046 C230.905231,341.823046 204,368.721481 204,401.914976 C204,435.099264 230.906382,462 264.092224,462 L444.015561,462 L477.407419,462 L512.199956,462 C545.778264,462 573,434.781634 573,401.208364 C572.997698,367.632792 545.775962,340.416728 512.197654,340.416728 Z" fill="#E4F2F9"></path>
                <path d="M328.300786,324.924936 C328.300786,303.235654 332.908956,282.623529 341.186382,264 C307.103202,273.513731 282.092358,304.742062 282.092358,341.825705 C282.092358,342.746351 282.13268,343.657791 282.160329,344.56693 C276.473846,342.78663 270.424471,341.825705 264.150447,341.825705 C230.931299,341.825705 204,368.723544 204,401.916305 C204,435.099859 230.932451,462 264.150447,462 L417,462 C364.707635,438.46252 328.300786,385.940786 328.300786,324.924936 Z" fill="#D7EDF9"></path>
            </g>
        </g>
        <g id="clouds" mask="url(#mask-2)" fill-rule="nonzero">
            <g transform="translate(-94.000000, 554.000000)" id="Shape">
                <path d="M179.62143,152 L223.670714,152 C240.125576,121.74541 268.247383,98.8051932 302,89.2692734 C295.209635,72.7455774 278.994284,61.1139018 260.063709,61.1139018 C255.331065,61.1139018 250.772297,61.8444158 246.487585,63.1888847 C246.510615,62.4987624 246.540554,61.8097942 246.540554,61.1139018 C246.540554,27.364847 219.234005,0 185.557386,0 C156.513232,0 132.232811,20.3482196 126.091889,47.5918913 C122.443954,46.3732139 118.551901,45.7061727 114.497488,45.7061727 C102.022192,45.7061727 91.0092957,51.9657429 84.4054727,61.5201276 C80.7206892,60.5680358 76.8516665,60.0521752 72.8686458,60.0521752 C47.5357591,60.0521752 27,80.6346671 27,106.024934 C27,131.410584 47.5369106,151.997692 72.8686458,151.997692 L146.203898,151.997692" fill="#9FDEF7"></path>
                <path d="M430.444397,123.945128 C406.858087,98.7494542 373.279746,83 336.019645,83 C274.474909,83 223.01324,125.978689 209.996289,183.515698 C202.270931,180.942386 194.018949,179.526834 185.430481,179.526834 C158.987494,179.526834 135.653549,192.75016 121.658252,212.926955 C113.846468,210.911807 105.654408,209.828852 97.2099837,209.828852 C43.5219738,209.828852 0,253.294354 0,306.9127 C0,360.528744 43.5219738,404 97.2099837,404 L204.391256,404 C204.617117,370.999226 231.458817,344.318948 264.550867,344.318948 C270.826567,344.318948 276.87756,345.279912 282.565562,347.060285 C282.539058,346.15111 282.497573,345.239632 282.497573,344.318948 C282.497573,299.680726 318.729778,263.494384 363.424844,263.494384 C401.962902,263.494384 434.190689,290.409436 442.341264,326.435808 C447.177679,324.82346 452.341361,323.938453 457.720534,323.938453 C474.277506,323.938453 488.892767,332.217705 497.65524,344.855247 C502.546968,343.591608 507.67608,342.912603 512.963064,342.912603 C535.123917,342.912603 554.513366,354.742244 565.15878,372.417079 C580.595668,355.392477 590,332.811547 590,308.038236 C590,255.034447 546.980451,212.075322 493.912406,212.075322 C483.891566,212.075322 474.230259,213.609412 465.14628,216.452024 C465.193527,214.998494 465.256906,213.541511 465.256906,212.075322 C465.256906,190.402416 459.908847,169.978188 450.454964,152.043259" fill="#BEEAFC"></path>
                <path d="M103.146356,210.180525 C101.206639,210.063241 99.253083,210 97.2833822,210 C43.5548351,209.99885 0,253.42719 0,306.998275 C0,360.567061 43.5548351,404 97.2833822,404 L204.545582,404 C204.615929,393.653732 207.313312,383.930678 212,375.4575 C158.964538,334.761183 119.889965,276.888542 103.146356,210.180525 Z" fill="#AEE4FF"></path>
                <path d="M94.1522383,137.044228 C94.1522383,105.669557 99.0085915,75.4254841 108,47 C98.3034508,48.7784561 89.943322,54.3465944 84.5341664,62.1025434 C80.8411222,61.1565561 76.9634258,60.644003 72.9714758,60.644003 C47.5817969,60.644003 27,81.0945277 27,106.322002 C27,131.544889 47.582951,152 72.9714758,152 L94.5273131,152 C94.282649,147.044173 94.1522383,142.05968 94.1522383,137.044228 Z" fill="#83D4ED"></path>
                <path d="M512.197654,340.416728 C506.917199,340.416728 501.792119,341.093418 496.908734,342.359335 C488.157081,329.72088 473.559869,321.442934 457.023343,321.442934 C451.650814,321.442934 446.493508,322.327925 441.663065,323.940243 C433.521404,287.913395 401.334567,261 362.844101,261 C318.204229,261 282.016768,297.185662 282.016768,341.823046 C282.016768,342.743713 282.05705,343.655174 282.084673,344.564332 C276.403695,342.783993 270.360175,341.823046 264.092224,341.823046 C230.905231,341.823046 204,368.721481 204,401.914976 C204,435.099264 230.906382,462 264.092224,462 L444.015561,462 L477.407419,462 L512.199956,462 C545.778264,462 573,434.781634 573,401.208364 C572.997698,367.632792 545.775962,340.416728 512.197654,340.416728 Z" fill="#E4F2F9"></path>
                <path d="M328.300786,324.924936 C328.300786,303.235654 332.908956,282.623529 341.186382,264 C307.103202,273.513731 282.092358,304.742062 282.092358,341.825705 C282.092358,342.746351 282.13268,343.657791 282.160329,344.56693 C276.473846,342.78663 270.424471,341.825705 264.150447,341.825705 C230.931299,341.825705 204,368.723544 204,401.916305 C204,435.099859 230.932451,462 264.150447,462 L417,462 C364.707635,438.46252 328.300786,385.940786 328.300786,324.924936 Z" fill="#D7EDF9"></path>
            </g>
        </g>
    </g>
</svg>