<?xml version="1.0" encoding="UTF-8" standalone="no"?>
<svg width="75px" height="31px" viewBox="0 0 75 31" version="1.1" xmlns="http://www.w3.org/2000/svg" xmlns:xlink="http://www.w3.org/1999/xlink">
    <!-- Generator: Sketch Beta 48 (47142) - http://www.bohemiancoding.com/sketch -->
    <title>stripe-3</title>
    <desc>Created with Sketch Beta.</desc>
    <defs>
        <polygon id="path-1" points="0 0 75 0 75 31 0 31"></polygon>
    </defs>
    <g id="Onboard---Notifications-Copy-4" stroke="none" stroke-width="1" fill="none" fill-rule="evenodd" transform="translate(-541.000000, -642.000000)" opacity="0.200000003">
        <g id="stripe-3" transform="translate(541.000000, 642.000000)">
            <mask id="mask-2" fill="white">
                <use xlink:href="#path-1"></use>
            </mask>
            <g id="a"></g>
            <path d="M7.83735496,13.944564 C6.22123259,13.3488334 5.33554506,12.8854873 5.33554506,12.1573722 C5.33554506,11.5394672 5.84480709,11.1864968 6.75257869,11.1864968 C8.41303525,11.1864968 10.11766,11.8264107 11.2911046,12.3999669 L11.9552872,8.31821943 C11.0254316,7.87688234 9.12138602,7.14876717 6.48690564,7.14876717 C4.62719429,7.14876717 3.07732414,7.63412212 1.9704638,8.53880523 C0.819103221,9.48750621 0.221338859,10.8555353 0.221338859,12.5103425 C0.221338859,15.5110045 2.05896613,16.7908324 5.04778794,17.8719179 C6.97391755,18.5558497 7.6160161,19.0413702 7.6160161,19.7914943 C7.6160161,20.5196095 6.99600162,20.9387721 5.86689116,20.9387721 C4.47210765,20.9387721 2.16971859,20.2548403 0.664182624,19.3723316 L0,23.4982625 C1.28403106,24.2263776 3.6750885,24.9765017 6.15481433,24.9765017 C8.12511208,24.9765017 9.76348457,24.5131557 10.870511,23.630647 C12.1102078,22.6597716 12.7523064,21.2257157 12.7523064,19.3723316 C12.7523064,16.3053119 10.870511,15.0256495 7.83735496,13.944564 Z M23.5647014,11.5394672 L24.228884,7.47972861 L20.7224979,7.47972861 L20.7224979,2.55138176 L16.0081296,3.32450769 L15.3273424,7.47972861 L13.6692105,7.74780738 L13.0485318,11.5394672 L15.3205345,11.5394672 L15.3205345,19.5047162 C15.3205345,21.5786861 15.8518806,23.0129075 16.9366569,23.8954162 C17.8444285,24.6235314 19.1505436,24.9765017 20.9881709,24.9765017 C22.4050385,24.9765017 23.2684759,24.733907 23.8662403,24.579348 L23.8662403,20.2768492 C23.5341489,20.365216 22.781464,20.5196095 22.272202,20.5196095 C21.1874257,20.5196095 20.7224979,19.9680622 20.7224979,18.7104087 L20.7224979,11.5394672 L23.5647014,11.5394672 Z M34.0946527,7.24259474 C32.5449486,7.24259474 31.3050856,8.05345027 30.8180737,9.50968062 L30.4859824,7.47972861 L25.6817835,7.47972861 L25.6817835,24.6455403 L31.1722491,24.6455403 L31.1722491,13.5032269 C31.8586819,12.6647361 32.8327057,12.3615754 34.1610709,12.3615754 C34.4489941,12.3615754 34.7588353,12.3615754 35.1352608,12.4277677 L35.1352608,7.37497931 C34.7588353,7.28677809 34.426744,7.24259474 34.0946527,7.24259474 Z M39.231109,5.78073804 C40.8251473,5.78073804 42.1091783,4.47906669 42.1091783,2.89045176 C42.1091783,1.27966242 40.8251473,0 39.231109,0 C37.6148206,0 36.3307895,1.27966242 36.3307895,2.89045176 C36.3307895,4.47906669 37.6148206,5.78073804 39.231109,5.78073804 Z M36.463626,7.47972861 L41.9763418,7.47972861 L41.9763418,24.6455403 L36.463626,24.6455403 L36.463626,7.47972861 Z M57.5984153,9.02416019 C56.6242254,7.7665067 55.2737761,7.14876717 53.5469013,7.14876717 C51.952863,7.14876717 50.5580794,7.81069005 49.2517983,9.20072812 L48.9640412,7.47972861 L44.1375921,7.47972861 L44.1375921,31 L49.6282238,30.0954824 L49.6282238,24.579348 C50.4694111,24.8441172 51.3328485,24.9765017 52.1077836,24.9765017 C53.480483,24.9765017 55.4730309,24.6235314 57.022735,22.9467152 C58.5060208,21.3359259 59.2588718,18.8427933 59.2588718,15.5551878 C59.2588718,12.6427271 58.7052756,10.4363727 57.5984153,9.02416019 Z M53.0376392,19.6149264 C52.5947955,20.4534172 51.9085288,20.8947543 51.1115096,20.8947543 C50.5580794,20.8947543 50.0709015,20.7843786 49.6282238,20.5637928 L49.6282238,12.3999669 C50.5580794,11.429257 51.3992667,11.3188814 51.709274,11.3188814 C53.1040575,11.3188814 53.7903242,12.8192951 53.7903242,15.7537647 C53.7903242,17.4305808 53.5469013,18.7324177 53.0376392,19.6149264 Z M75,15.9081582 C75,13.1722654 74.4022356,11.0099288 73.228791,9.48750621 C72.0332623,7.94307463 70.2399692,7.14876717 67.9596642,7.14876717 C63.2881357,7.14876717 60.3879823,10.5907662 60.3879823,16.1067351 C60.3879823,19.1957637 61.1627513,21.5124938 62.6903713,22.9907331 C64.0630708,24.3145789 66.0335346,24.9765017 68.5795126,24.9765017 C70.9262359,24.9765017 73.0959545,24.4249545 74.4686539,23.5202714 L73.8708895,19.7694854 C72.5202742,20.4976005 70.948486,20.8947543 69.177277,20.8947543 C68.1145848,20.8947543 67.3839839,20.674003 66.8526378,20.210657 C66.2769575,19.725302 65.9448662,18.9309945 65.8342798,17.8057256 L74.9335817,17.8057256 C74.9556658,17.5409565 75,16.3053119 75,15.9081582 Z M65.7899456,14.4519279 C65.9448662,12.0028132 66.6090488,10.8555353 67.8709958,10.8555353 C69.1108587,10.8555353 69.7529573,12.0249876 69.8414596,14.4519279 L65.7899456,14.4519279 Z" id="Shape" fill="#1A1918" fill-rule="nonzero" mask="url(#mask-2)"></path>
        </g>
    </g>
</svg>