<?xml version="1.0" standalone="no"?>
<!DOCTYPE svg PUBLIC "-//W3C//DTD SVG 20010904//EN"
 "http://www.w3.org/TR/2001/REC-SVG-20010904/DTD/svg10.dtd">
<svg version="1.0" xmlns="http://www.w3.org/2000/svg"
 width="571.000000pt" height="571.000000pt" viewBox="0 0 571.000000 571.000000"
 preserveAspectRatio="xMidYMid meet">
<metadata>
Created by potrace 1.11, written by Peter Selinger 2001-2013
</metadata>
<g transform="translate(0.000000,571.000000) scale(0.100000,-0.100000)"
fill="#000000" stroke="none">
<path d="M2550 5690 c-136 -19 -148 -22 -261 -50 -331 -84 -696 -280 -933
-500 -209 -195 -350 -370 -462 -577 -20 -37 -40 -72 -44 -78 -15 -20 -93 -212
-125 -307 -232 -686 -109 -1462 324 -2042 93 -124 121 -156 231 -264 268 -265
569 -443 934 -552 l121 -37 57 -124 c32 -68 77 -167 102 -219 25 -52 96 -207
159 -345 135 -295 152 -333 204 -445 22 -47 43 -96 48 -109 4 -12 10 -19 15
-15 4 5 56 126 115 269 59 143 135 328 170 410 34 83 102 247 150 365 48 118
93 221 100 229 7 7 57 28 112 46 654 216 1185 746 1406 1405 31 92 64 213 72
260 3 19 10 58 15 85 19 98 22 132 25 330 4 214 -9 368 -46 525 -11 47 -22 94
-24 106 -3 11 -21 68 -40 126 -78 235 -218 494 -374 688 -132 166 -343 356
-528 478 -249 163 -578 291 -853 332 -41 6 -86 14 -100 17 -14 3 -119 6 -235
8 -160 2 -239 -1 -335 -15z m520 -260 c30 -5 73 -11 95 -14 158 -22 374 -90
540 -171 478 -232 841 -640 1010 -1135 31 -91 71 -247 81 -315 3 -27 8 -59 10
-70 6 -31 16 -183 16 -255 1 -102 -13 -255 -36 -385 -2 -11 -11 -49 -21 -85
-78 -304 -199 -546 -393 -785 -104 -127 -232 -247 -377 -352 -185 -133 -408
-239 -636 -301 l-101 -27 -50 -120 c-27 -66 -56 -136 -65 -155 -8 -19 -63
-152 -122 -295 -59 -143 -111 -259 -115 -258 -7 2 -49 86 -161 328 -12 28 -55
122 -95 210 -108 242 -117 260 -131 271 -8 6 -52 19 -99 28 -566 118 -1080
525 -1342 1061 -135 277 -197 546 -198 860 -1 315 60 583 200 870 127 262 328
511 558 690 7 5 19 15 26 22 37 33 205 135 311 188 106 54 315 132 400 150
189 40 301 52 465 53 96 0 200 -3 230 -8z"/>
<path d="M2047 4797 c-27 -19 -34 -62 -32 -199 1 -108 4 -130 20 -148 24 -27
41 -25 61 5 12 19 17 54 18 152 2 145 -2 171 -30 190 -16 10 -24 10 -37 0z"/>
<path d="M1320 4491 c-17 -32 4 -66 100 -162 96 -96 131 -117 158 -97 39 29
24 58 -87 170 -83 84 -112 108 -133 108 -17 0 -31 -8 -38 -19z"/>
<path d="M2638 4402 c-98 -98 -107 -110 -102 -137 13 -70 57 -53 176 67 54 55
98 103 98 108 0 5 3 15 6 23 7 19 -22 47 -49 47 -13 0 -59 -38 -129 -108z"/>
<path d="M1962 4195 c-122 -28 -242 -116 -292 -215 -53 -104 -68 -260 -35
-360 22 -68 73 -147 127 -195 l40 -37 -21 -27 c-94 -116 -131 -206 -137 -326
-9 -214 128 -414 337 -486 64 -22 65 -22 804 -24 686 -1 776 1 845 22 14 4
144 8 290 10 149 1 289 8 320 14 114 24 251 111 320 204 51 69 68 104 91 193
40 158 18 307 -64 434 -84 129 -195 209 -335 242 -77 18 -67 16 -101 16 -26 0
-30 5 -45 58 -44 146 -141 264 -271 330 -140 70 -327 67 -472 -6 -40 -21 -42
-21 -65 -3 -38 29 -130 76 -178 90 -69 21 -222 24 -293 5 -88 -23 -174 -67
-240 -124 -76 -65 -105 -67 -146 -7 -60 87 -137 149 -231 183 -57 20 -180 25
-248 9z m1143 -215 c150 -56 255 -190 272 -350 3 -30 8 -57 10 -60 3 -3 41 -6
86 -7 45 0 91 -3 102 -6 238 -62 383 -275 346 -507 -19 -119 -85 -224 -193
-305 -22 -17 -131 -63 -168 -70 -19 -4 -357 -8 -750 -8 -628 0 -722 2 -771 16
-140 41 -238 164 -247 311 -11 173 89 309 267 362 l46 13 0 93 c0 81 4 100 27
149 36 72 94 129 171 168 77 38 148 48 229 31 l61 -13 21 29 c113 157 313 219
491 154z m620 -14 c146 -43 263 -188 281 -348 8 -81 6 -79 76 -75 136 8 252
-36 344 -127 52 -52 107 -149 120 -207 45 -220 -74 -435 -284 -512 -47 -17
-84 -21 -220 -23 l-162 -2 32 40 c58 71 79 102 102 153 44 96 56 148 57 245 1
224 -122 430 -319 533 -71 37 -119 53 -191 62 -25 3 -45 6 -46 8 -1 1 -12 30
-25 64 -12 35 -35 83 -51 108 -16 25 -29 47 -29 50 0 5 84 36 122 44 46 10
132 4 193 -13z"/>
<path d="M1053 3800 c-36 -15 -45 -44 -22 -69 22 -23 17 -23 186 -23 131 -1
173 12 173 51 0 36 -57 51 -192 50 -67 0 -133 -4 -145 -9z"/>
<path d="M1525 3280 c-31 -13 -193 -182 -204 -213 -8 -19 -8 -34 -1 -47 19
-36 72 -7 170 91 105 105 114 118 100 153 -10 27 -29 31 -65 16z"/>
</g>
</svg>
